<svg width="19" height="19" viewBox="0 0 19 19" fill="none" xmlns="http://www.w3.org/2000/svg">
<path fill-rule="evenodd" clip-rule="evenodd" d="M9.89916 8.53582L13.223 5.21198L13.9301 5.91909L10.6063 9.24293L9.63046 9.51163L9.89916 8.53582ZM14.6372 3.79777L15.3443 4.50488L16.237 3.6122L16.2373 3.60687L16.2373 3.60668C16.2376 3.59906 16.2384 3.5779 16.2204 3.53315C16.2017 3.48635 16.1421 3.36395 15.9601 3.18197C15.7781 2.99998 15.6557 2.94044 15.6089 2.92165C15.5642 2.90368 15.543 2.90448 15.5354 2.90476L15.5352 2.90477L15.5299 2.9051L14.6372 3.79777ZM14.285 1.32159C14.3175 1.28909 14.3514 1.25923 14.3901 1.2345C14.6716 1.05479 15.9675 0.360932 17.3743 1.76775C18.7812 3.17457 18.0873 4.47049 17.9076 4.75196C17.8829 4.79069 17.853 4.82462 17.8205 4.85712L11.8336 10.844C11.7112 10.9665 11.559 11.055 11.392 11.101L8.46458 11.9071C7.71647 12.1131 7.02898 11.4256 7.23498 10.6775L8.04108 7.75009C8.08706 7.58311 8.17562 7.43093 8.29809 7.30846L14.285 1.32159ZM1 2.99999C0.447715 2.99999 0 3.4477 0 3.99999V18C0 18.5523 0.447715 19 1 19H16C16.5523 19 17 18.5523 17 18V12C17 11.4477 16.5523 11 16 11C15.4477 11 15 11.4477 15 12V17H2V4.99999H7.5C8.05228 4.99999 8.5 4.55227 8.5 3.99999C8.5 3.4477 8.05228 2.99999 7.5 2.99999H1Z" fill="#EAEAEA"/>
</svg>
